<?xml version="1.0" standalone="no"?>
<!DOCTYPE svg PUBLIC "-//W3C//DTD SVG 20010904//EN"
 "http://www.w3.org/TR/2001/REC-SVG-20010904/DTD/svg10.dtd">
<svg version="1.0" xmlns="http://www.w3.org/2000/svg"
 width="260.000000pt" height="260.000000pt" viewBox="0 0 260.000000 260.000000"
 preserveAspectRatio="xMidYMid meet">
<metadata>
Created by potrace 1.11, written by Peter Selinger 2001-2013
</metadata>
<g transform="translate(0.000000,260.000000) scale(0.100000,-0.100000)"
fill="#000000" stroke="none">
<path d="M793 2316 c-8 -12 -6 -172 1 -185 4 -5 3 -12 -2 -15 -4 -3 -5 -30 -2
-61 3 -30 4 -58 1 -60 -9 -10 -8 -45 2 -45 5 0 4 -7 -3 -15 -10 -12 -10 -15 0
-15 10 0 10 -3 0 -15 -10 -12 -10 -15 1 -15 9 0 10 -3 2 -11 -6 -6 -7 -25 -3
-49 4 -24 3 -43 -3 -49 -8 -8 -7 -11 2 -11 7 0 9 -4 6 -10 -10 -16 -11 -290
-1 -290 5 0 3 -7 -4 -15 -10 -12 -10 -15 0 -15 10 0 10 -3 0 -15 -10 -12 -10
-15 1 -15 9 0 10 -3 2 -11 -6 -6 -7 -25 -3 -49 4 -24 3 -43 -3 -49 -8 -8 -7
-11 2 -11 7 0 9 -5 5 -12 -4 -6 -6 -41 -5 -78 l2 -67 -40 -33 c-23 -17 -41
-40 -41 -51 0 -10 -5 -19 -11 -19 -6 0 -7 -5 -2 -12 4 -7 8 -22 9 -33 1 -28
29 -69 57 -84 36 -19 72 -20 112 -1 72 33 68 -2 69 748 1 453 -2 673 -9 674
-39 6 -138 2 -142 -6z"/>
<path d="M1160 2324 c0 -5 -13 -9 -30 -8 -17 1 -31 -3 -31 -9 -1 -7 -2 -316
-3 -687 l-1 -675 -25 -50 c-13 -27 -31 -58 -39 -68 -19 -23 -101 -81 -101 -71
0 3 -7 1 -15 -6 -18 -15 -149 -17 -185 -3 -14 6 -28 11 -33 12 -4 0 -20 12
-35 26 -15 14 -30 25 -34 25 -4 0 -10 9 -13 21 -4 11 -9 18 -13 15 -3 -4 -16
17 -28 46 -24 55 -33 171 -15 182 5 3 7 15 4 26 -3 11 0 20 6 20 6 0 11 6 11
13 0 19 67 95 90 102 11 4 20 10 20 14 0 7 -215 226 -298 305 l-31 29 -70 -74
c-39 -40 -71 -79 -71 -86 0 -7 -4 -13 -9 -13 -8 0 -82 -140 -88 -168 -8 -32
-12 -47 -13 -47 -1 0 -4 -11 -6 -25 -6 -43 -9 -55 -17 -67 -5 -8 -3 -13 5 -13
8 0 9 -3 2 -8 -22 -15 -3 -223 28 -307 48 -127 97 -205 184 -290 72 -71 90
-85 124 -104 73 -40 116 -61 128 -61 6 0 12 -5 12 -12 0 -6 3 -9 6 -6 3 4 20
2 37 -4 18 -5 41 -11 52 -13 11 -1 20 -3 20 -5 0 -1 20 -3 45 -6 25 -2 57 -6
72 -8 16 -3 29 0 32 7 3 9 5 8 5 -1 1 -7 6 -10 12 -6 6 4 34 8 63 9 28 1 51 3
51 4 0 2 11 5 25 8 35 7 42 9 74 22 16 6 31 10 33 7 3 -2 13 3 24 12 11 9 21
15 22 12 1 -3 16 5 34 18 17 12 34 22 38 22 3 0 12 6 20 13 7 6 28 23 46 37
78 60 217 238 203 261 -3 5 -1 9 5 9 11 0 44 98 56 166 11 59 12 91 14 335 l1
225 158 1 c179 1 193 3 251 33 139 70 196 243 128 382 -15 31 -43 70 -63 87
-40 36 -109 73 -118 64 -3 -4 -6 -2 -6 4 0 6 -90 9 -252 9 l-253 -1 -1 -535
c-1 -294 -4 -551 -8 -570 -10 -53 -36 -129 -47 -135 -5 -4 -9 -15 -9 -26 0
-10 -5 -19 -12 -19 -6 0 -8 -3 -5 -6 11 -12 -90 -129 -155 -179 -17 -14 -92
-60 -98 -61 -3 0 -18 -6 -35 -13 -33 -14 -70 -23 -97 -25 -10 0 -18 -3 -18 -7
0 -4 -48 -5 -107 -3 -124 4 -133 5 -133 14 0 3 -9 6 -20 7 -30 2 -170 71 -170
83 0 5 -6 10 -13 10 -28 0 -138 133 -176 214 -46 97 -58 150 -61 281 -1 21 8
72 20 115 7 25 13 51 14 58 1 7 8 18 14 24 7 7 12 20 12 30 0 10 4 18 9 18 5
0 14 13 21 30 23 55 33 55 89 1 46 -45 65 -81 42 -81 -14 0 -55 -111 -58 -155
-1 -22 -2 -40 -3 -40 -6 0 -6 -86 0 -90 4 -3 6 -16 5 -30 -2 -14 1 -25 6 -25
6 0 9 -6 7 -12 -5 -22 50 -121 89 -162 43 -44 134 -106 157 -106 8 0 17 -4 21
-9 10 -16 187 -33 215 -20 8 4 40 15 70 24 30 10 57 21 60 24 3 4 24 19 48 34
23 15 42 32 42 39 0 6 3 9 6 5 9 -9 75 91 97 148 10 27 21 70 23 95 3 25 7 57
9 73 2 15 -1 27 -6 27 -6 0 -7 6 -3 12 11 17 11 108 1 108 -5 0 -5 6 -1 12 11
17 11 108 1 108 -5 0 -5 6 -1 12 11 17 11 108 0 108 -5 0 -3 7 4 15 10 12 10
15 -1 15 -9 0 -10 3 -4 8 12 9 14 82 2 82 -4 0 -5 6 -1 12 11 17 11 108 1 108
-5 0 -5 5 -1 12 10 15 10 101 0 116 -4 7 -4 12 1 12 4 0 8 45 8 100 0 55 -4
100 -8 100 -5 0 -5 5 -2 11 10 15 11 129 2 129 -4 0 -2 8 4 18 10 15 34 17
267 17 142 0 262 -4 268 -8 6 -3 14 -3 18 1 10 10 105 9 99 -1 -3 -5 1 -7 8
-6 23 4 71 -11 127 -39 71 -35 152 -116 188 -189 16 -32 31 -60 34 -63 17 -17
21 -206 4 -252 -7 -21 -10 -38 -7 -38 3 0 -1 -8 -10 -17 -8 -10 -16 -21 -16
-26 -3 -49 -156 -201 -216 -214 -5 -1 -29 -9 -53 -18 -24 -8 -48 -13 -53 -10
-5 4 -9 2 -9 -2 0 -5 -34 -9 -76 -8 -42 0 -80 -3 -85 -6 -6 -3 -9 -37 -7 -75
3 -59 6 -69 21 -68 9 1 17 -2 17 -7 0 -6 8 -5 19 1 14 7 22 7 26 0 5 -8 11 -7
21 1 11 9 14 8 14 -2 0 -10 3 -10 8 -3 4 6 14 10 23 9 25 -4 122 16 137 27 6
6 12 8 12 5 0 -10 71 23 129 60 89 56 201 185 217 247 3 14 11 26 16 26 6 0 8
9 5 20 -3 11 -2 20 3 20 4 0 11 15 15 33 25 104 24 208 -2 316 -8 35 -65 151
-94 192 -30 42 -108 119 -120 119 -5 0 -9 3 -9 8 0 7 -10 13 -66 42 -16 8 -31
17 -34 20 -4 5 -83 33 -102 36 -5 1 -9 2 -10 4 -7 5 -47 10 -95 12 -29 2 -53
8 -53 13 0 7 -3 7 -8 0 -9 -13 -92 -15 -92 -3 0 5 -5 6 -12 2 -19 -12 -108
-12 -108 0 0 6 -5 4 -10 -4 -9 -13 -10 -13 -10 0 0 9 -3 11 -8 5 -9 -13 -92
-15 -92 -3 0 5 -5 6 -12 2 -19 -12 -108 -12 -108 0 0 6 -5 4 -10 -4 -9 -13
-10 -13 -10 0 0 9 -3 11 -8 5 -10 -14 -92 -15 -92 -1 0 7 -3 7 -8 1 -9 -13
-65 -14 -74 0 -5 7 -8 7 -8 -1z m746 -489 c34 -20 80 -85 61 -86 -7 0 -8 -2
-1 -5 32 -14 -13 -119 -62 -144 -16 -8 -30 -17 -32 -20 -1 -3 -71 -5 -155 -4
l-152 0 -3 129 c-1 71 -1 134 1 139 3 7 59 11 159 10 128 -1 160 -4 184 -19z"/>
</g>
</svg>
