<svg version="1.1" id="Layer_1" xmlns="http://www.w3.org/2000/svg" xmlns:xlink="http://www.w3.org/1999/xlink" x="0px" y="0px"
	 viewBox="0 0 684 180" style="enable-background:new 0 0 684 180;" xml:space="preserve">
<style type="text/css">
	.st0{fill:#577483;}
</style>
<g>
	<path class="st0" d="M211.4,97.1l5.7-6.3c2.3,2.6,4.6,4.1,7.5,4.1c3.4,0,5.5-2.1,5.5-6.8V61.6h9.3v26.9c0,4.9-1.4,8.5-3.9,11
		c-2.5,2.5-6.2,3.8-10.7,3.8C218.5,103.3,214.2,100.5,211.4,97.1z"/>
	<path class="st0" d="M249.7,82.3v-0.1c0-11.7,9.2-21.2,21.9-21.2c12.7,0,21.8,9.4,21.8,21.1v0.1c0,11.7-9.2,21.2-21.9,21.2
		C258.8,103.4,249.7,94,249.7,82.3z M283.9,82.3v-0.1c0-7-5.2-12.9-12.4-12.9s-12.3,5.7-12.3,12.8v0.1c0,7,5.2,12.9,12.4,12.9
		S283.9,89.3,283.9,82.3z"/>
	<path class="st0" d="M304.3,61.6h9v16.2H330V61.6h9v41.1h-9V86.2h-16.7v16.5h-9V61.6z"/>
	<path class="st0" d="M351.8,61.6h8.3l19.2,25.3V61.6h8.9v41.1h-7.7l-19.9-26.1v26.1h-8.9V61.6z"/>
	<path class="st0" d="M421.6,61.6h16.8c9.8,0,15.7,5.8,15.7,14.2V76c0,9.5-7.4,14.4-16.6,14.4h-6.9v12.3h-9V61.6z M437.8,82.3
		c4.5,0,7.2-2.7,7.2-6.2V76c0-4-2.8-6.2-7.3-6.2h-7v12.6H437.8z"/>
	<path class="st0" d="M463.1,85.1V61.6h9v23.2c0,6.7,3.3,10.1,8.9,10.1c5.5,0,8.9-3.3,8.9-9.9V61.6h9v23.2c0,12.4-7,18.5-18,18.5
		S463.1,97.2,463.1,85.1z"/>
	<path class="st0" d="M511,61.6h18.8c5.2,0,9.3,1.5,12,4.2c2.3,2.3,3.5,5.5,3.5,9.4v0.1c0,6.6-3.6,10.8-8.8,12.7l10,14.7h-10.6
		l-8.8-13.1H520v13.1h-9V61.6z M529.2,81.6c4.4,0,6.9-2.3,6.9-5.8v-0.1c0-3.9-2.7-5.9-7.1-5.9h-9v11.8H529.2z"/>
	<path class="st0" d="M565.9,70h-12.5v-8.3h34V70h-12.5v32.7h-9V70z"/>
	<path class="st0" d="M597.3,61.6h9v32.9h20.5v8.2h-29.5V61.6z"/>
	<path class="st0" d="M636.5,61.6h31v8h-22V78h19.4v8h-19.4v8.6h22.3v8h-31.3V61.6z"/>
</g>
<g>
	<path class="st0" d="M68,118.7c4.6,0,8.4-3.7,8.4-8.4c0-0.1,0-0.1,0-0.2l0.1,0V71.3c0-21.1,0-52.3,0-52.3H65.7v83.3
		c-3.5,1-6.1,4.2-6.1,8C59.6,114.9,63.3,118.7,68,118.7z"/>
	<path class="st0" d="M176.4,45.1c-2.1-4.9-4.9-9.3-8.7-13.1c-3.8-3.8-8.2-6.8-13.1-9c-5.1-2.2-10.4-3.3-15.9-3.4H97.5c0,0,0,0,0,0
		H87v92.1c-0.2,2.5-0.9,5-2.1,7.3c-0.9,1.8-2.1,3.4-3.5,4.8c-1.1,1.1-2.3,2.1-3.7,2.9c-3,1.8-6.3,2.6-9.7,2.6
		c-5.3,0-9.8-1.9-13.5-5.6c-3.7-3.7-5.6-8.2-5.6-13.5c0-3.4,0.9-6.7,2.6-9.7c0.9-1.4,1.9-2.6,2.9-3.7c1.5-1.5,3.1-2.6,4.8-3.5
		L36.4,70.5c-0.8,0.6-2.2,1.8-4.1,3.7c-1.9,1.9-3,3.1-3.5,3.8C20.9,87.4,17,98.2,17,110.5c0,7,1.3,13.6,4,19.8
		c2.6,6.1,6.3,11.5,11,16.2c4.7,4.7,10.1,8.4,16.2,11c6.3,2.6,12.9,4,19.8,4c12.2,0,23.1-3.9,32.5-11.8c1.3-1,2.4-2.1,3.5-3.2
		c1.4-1.4,2.7-2.8,4-4.4l0.3-0.4c4.8-6.2,8-13,9.6-20.6c0.6-2.7,0.9-5.5,1-8.4c0.1-0.3,0.1-0.2,0.1-31.6l0.1,0.1h19.7
		c5.4-0.2,10-2.2,13.8-6c3.8-3.9,5.7-8.6,5.7-14.1c0-5.5-1.9-10.2-5.7-14.1c-3.8-3.9-8.4-5.9-13.8-6H119c0,0,0,0,0,0h-10.7v71.3
		c-0.4,8.2-3,15.7-7.9,22.3c-1.2,1.6-2.4,3-3.8,4.4c-1.2,1.2-2.4,2.3-3.5,3.2c-7.3,5.8-15.7,8.7-25,8.7c-5.5,0-10.7-1.1-15.7-3.2
		c-4.8-2.1-9.1-4.9-12.8-8.7c-3.7-3.7-6.6-8-8.7-12.8c-2.2-5-3.2-10.2-3.2-15.7c0-9.3,2.9-17.6,8.7-25l7.6,7.6
		c-3.7,5.2-5.6,11-5.6,17.3c0,8.2,2.9,15.2,8.7,21c2.7,2.7,5.9,4.8,9.4,6.3c3.7,1.6,7.6,2.4,11.6,2.4c6.4,0,12.1-1.9,17.3-5.6
		c1.3-0.9,2.5-1.9,3.7-3.1c1.4-1.4,2.6-2.9,3.7-4.6c1.3-1.9,2.3-3.8,2.9-5.9c1.2-2.8,1.8-5.8,1.9-8.8c0.1-0.3,0.1,3.5,0.1-35.2
		c0-15.8,0-31.1-0.1-46.7h40.6c8.5,0.1,15.8,3.1,21.7,9.1c2.8,2.8,5,6.1,6.6,9.8c1.7,3.8,2.5,7.8,2.5,11.9c0,4.2-0.8,8.2-2.5,12
		c-1.6,3.6-3.8,6.9-6.6,9.7c-2.8,2.8-6.1,5-9.8,6.6c-3.8,1.7-7.8,2.5-11.9,2.5h-7.3v10.6h7.9c5.5-0.1,10.8-1.2,15.9-3.4
		c4.9-2.2,9.3-5.1,13.1-9c3.7-3.8,6.6-8.2,8.7-13.1c2.2-5.1,3.2-10.4,3.2-16C179.7,55.5,178.6,50.2,176.4,45.1z M145,54.4
		c1.9,1.9,2.8,4.1,2.8,6.8c0,2.6-0.9,4.9-2.8,6.8c-1.9,1.9-4.1,2.8-6.8,2.8H119c0-1.4,0-2.8,0-4.3c0-13.3,0-11.2,0-14.9h19.2
		C140.9,51.6,143.1,52.5,145,54.4z"/>
</g>
<g>
	<path class="st0" d="M1766.6,408.5c0,0.1,0,0.2,0,0.3c0-0.2,0-0.5,0-0.7C1766.6,408.2,1766.6,408.3,1766.6,408.5z"/>
	<path class="st0" d="M1766.6,403.5c0,0,0,0.1,0,0.1C1766.6,403.6,1766.6,403.5,1766.6,403.5
		C1766.6,403.5,1766.6,403.5,1766.6,403.5z"/>
	<path class="st0" d="M1766.6,409.5v1.2c0,0.2,0,0.3,0.1,0.4c0-0.7,0-1.3,0-2C1766.6,409.2,1766.6,409.3,1766.6,409.5z"/>
	<path class="st0" d="M1766.6,421.2v1.2c0,0.4,0.1,0.6,0.2,0.8c0-0.8,0-1.6,0-2.5C1766.7,420.8,1766.6,421,1766.6,421.2z"/>
	<path class="st0" d="M1766.6,418.8c0,0.2,0.1,0.4,0.1,0.5c0-0.3,0-0.6,0-0.9C1766.7,418.5,1766.6,418.6,1766.6,418.8z"/>
	<path class="st0" d="M1766.6,416.9c0,0.3,0.1,0.5,0.1,0.7c0-0.4,0-0.7,0-1.1C1766.7,416.5,1766.6,416.7,1766.6,416.9z"/>
	<path class="st0" d="M1766.6,414.5c0,0.2,0,0.3,0.1,0.4c0-0.3,0-0.6,0-1C1766.7,414.1,1766.6,414.2,1766.6,414.5z"/>
	<path class="st0" d="M1835.8,371.6c0-0.4,0.2-0.8,0.2-1.2v-1.2c0-0.4,0.2-0.8,0.2-1.2s-0.2-0.8-0.2-1.2v-1.2c0-0.4-0.2-0.8-0.2-1.2
		c0-0.4,0.2-0.8,0.2-1.2v-1.2c0-0.4,0-0.8-0.2-1.2c0-0.4-0.2,2.2-0.4,1.8c0-0.4,0.2-0.8,0.2-1.2s0-0.8-0.2-1.2
		c0-0.4-0.4-0.8-0.4-1.2s-0.2-0.8-0.2-1.2c-0.2-0.4,0-0.8,0-1.2c-0.2-0.4-0.2-0.8-0.4-1.2c0-0.4-0.2-0.8-0.2-1.2
		c-0.2-0.4-0.4-0.8-0.6-1c-0.2-0.4-0.2-0.8-0.4-1.2c-0.2-0.4-0.2-0.8-0.4-1.2c-0.2-0.4-0.4-0.6-0.6-1c-0.2-0.4-0.2-0.8-0.4-1.2
		c-0.2-0.4-0.4-0.6-0.6-1c-0.2-0.4-0.6-0.6-0.8-1c-0.2-0.4-0.4-0.6-0.6-1c-0.2-0.2-0.6-0.6-0.8-1c-0.2-0.2-0.4-0.6-0.6-0.8
		c-0.4-0.4-0.6-0.6-0.8-1c-0.4-0.2-0.6-0.6-0.8-0.8c-0.4-0.4-0.8-0.6-1-0.8c-0.4-0.2-0.4-0.8-0.8-1s-0.8-0.2-1.2-0.6
		c-0.2-0.2-0.6-0.4-0.8-0.6l-1.2-0.6c-0.4-0.2-0.6-0.4-1-0.6s-0.8-0.4-1-0.6c-0.4-0.2-0.8-0.2-1.2-0.4s-0.8-0.2-1.2-0.2l-1.2-0.6
		c-0.4,0-0.6-0.4-1-0.4c-0.4-0.2-0.8,0-1.2-0.2c-0.4,0-0.8,0-1.2-0.2h-1.2c-0.4-0.2-0.8-0.2-1.2-0.2c-0.4-0.2-0.8-0.2-1.2-0.2
		s-0.8-0.4-1.2-0.4h-1.2c-0.4,0-0.8-0.2-1.2-0.2h-1.2h-1.2c-0.4,0-0.8-0.2-1.2-0.2c-0.6,0-0.6,0.4-1.2,0.4c-0.6,0-0.6-0.2-1.2-0.2
		c-0.6,0-0.6,0.2-1.2,0.2c-0.6,0-0.6-0.2-1.2-0.2h-1.2h-1.2c-0.6,0-0.6-0.2-1.2-0.2h-1.2c-0.6,0-0.6,0.2-1.2,0.2h-1.4
		c-0.6,0-0.6-0.2-1.2-0.2s-0.6,0.2-1.2,0.2h-0.6c-0.4,0-0.6,0.1-0.8,0.2c-0.4-0.1-0.5-0.4-1-0.4c-0.6,0-0.6,0.2-1.2,0.2
		c-0.6,0-0.6-0.2-1.2-0.2c-0.5,0-0.6,0.2-0.9,0.3c-0.3-0.1-0.4-0.3-0.9-0.3h-1.4c-0.3,0-0.4,0.1-0.6,0.2h-1h-0.8
		c-0.6,0-0.6-0.2-1.2-0.2c-0.6,0-0.6,0.2-1.2,0.2h-0.4c-0.6,0-0.6-0.2-1.2-0.2c-0.2,0-0.3,0-0.4,0c-0.1,0-0.2,0-0.4,0
		c-0.4,0-0.5,0.1-0.8,0.1c-0.2-0.1-0.4-0.1-0.8-0.1c-0.6,0-0.6,0.2-1.2,0.2c-0.3,0-0.5,0.1-0.8,0.2h0c-0.2,0.1-0.5,0.2-0.6,0.3
		c-0.2,0.1-0.5,0.1-0.7,0.2c-0.2,0.4-0.4,0.8-0.6,1c0,0.4-0.4,0.8-0.4,1.2c0,0.2,0.3,0,0.4,0v0.2c0,0.4-0.2,0.5-0.2,1v1.2
		c0,0.6,0.2,0.6,0.2,1.2s-0.2,0.6-0.2,1.2c0,0.6-0.2,0.6-0.2,1.2v1.2v1.2c0,0.6,0.2,0.6,0.2,1.2v1.2c0,0.6-0.2,0.6-0.2,1.2
		s0.2,0.6,0.2,1.2v1c0,0.1,0,0.1,0,0.2c0,0.6,0.2,0.6,0.2,1.2v0.1c-0.1,0.5-0.4,0.5-0.4,1.1v1.2c0,0.6,0.2,0.6,0.2,1.2v1.2
		c0,0.6-0.2,0.6-0.2,1.2c0,0.5,0.1,0.6,0.2,1v0c0,0.1,0,0.2,0,0.2v1.2v1.2v-1.8c0,0.5,0.1,0.6,0.2,1v0v0.3c-0.1,0.5-0.4,0.5-0.4,1.1
		c0,0.6,0.2,0.6,0.2,1.2c0,0.6-0.2,0.6-0.2,1c0,0.6,0.2,0.6,0.2,1.2v1.2v1.2v1.2v1.2c0,0.6-0.2,0.6-0.2,1.2s0.2,0.6,0.2,1.2
		c0,0.6-0.2,0.6-0.2,1.2v1.2v1.2c0,0.6,0.2,0.6,0.2,1.2s-0.2,0.6-0.2,1.2c0,0.6,0.2-12.4,0.2-11.8v1.2c0,0.6,0.2,0.6,0.2,1.2
		c0,0.6-0.4,0.6-0.4,1.2c0,0.6,0.3,0.6,0.4,1.1c0,0,0,0,0,0.1v0.2c0,0.4-0.2,0.5-0.2,1v1.2v1.2c0,0.6,0.2,0.6,0.2,1.2
		s-0.4,0.6-0.4,1.2s0.2,0.6,0.2,1.2c0,0.6,0.2,0.6,0.2,1.2v0.8c0,0.1,0,0.1,0,0.2s0,0.2,0,0.2v1.2c0,0.6-0.2,0.6-0.2,1.2v1.2v1.2
		c0,0.2,0,0.3,0.1,0.5c0,0.1-0.1,0.3-0.1,0.5c0,0.3,0.1,0.4,0.2,0.6c-0.1,0.3-0.2,0.4-0.2,0.8v0.9c0,0,0,0.1,0,0.1s0,0.1,0,0.1v0.1
		v1.2v1.2c0,0.6-0.2,0.6-0.2,1.2v1.2c0,0.6,0.2,0.6,0.2,1.2s-0.2,0.6-0.2,1.2s0.2,0.6,0.2,1.2v1.2v1.2v1.2c0,0.3-0.1,0.5-0.1,0.6
		c0.1,0.2,0.3,0.4,0.3,0.8c0,0.5-0.2,0.6-0.2,1.1c0,0.5,0.2,0.5,0.2,1.1c0,0,0,0.1,0,0.1c0,0,0,0.1,0,0.1c0,0.6-0.2,0.6-0.2,1.2v1
		c0,0.3-0.1,0.5-0.1,0.6c0.1,0.2,0.3,0.4,0.3,0.8c0,0.6-0.2,0.6-0.2,1.2v0.4c0.1,0.1,0.2,0.3,0.2,0.6c0,0,0,0,0,0
		c0,0.6-0.2,0.6-0.2,1.2v-1v-0.8c0-0.1-0.1-0.1-0.1-0.2c0,0.9,0,1.9,0,2.9c0.1-0.2,0.1-0.3,0.1-0.6v1v0.8c0.1,0.1,0.2,0.3,0.2,0.6
		c0,0.2,0,0.3-0.1,0.4c0,0.1,0.1,0.2,0.1,0.4c0,0,0,0,0,0c0,0.1,0,0.2,0,0.2v1c0,0.3-0.1,0.4-0.2,0.6v1v0.2c0.1,0.1,0.2,0.3,0.2,0.6
		s-0.1,0.4-0.2,0.6v1v1.2c0,0.1,0,0.2,0,0.2c0,0.1,0,0.2,0,0.3c0-0.1,0-0.1,0-0.2c0,0.5,0,1,0,1.4c0,0.4-0.4,0.8-0.4,1.1
		c-0.2,0.4,0,0.8,0,1.2l-0.6,1.2c0,0.2-0.2,0.8-0.2,1l-0.6,1.2c-0.2,0.4-0.2,0.8-0.4,1l-0.6,1.2c-0.2,0.2-0.6,0.4-0.8,0.8
		c-0.4,0.2-0.6,0.6-1,0.8c-0.2,0.2-0.6,0.4-1,0.6s-0.6,0.4-1,0.6c-0.4,0-0.8,0.2-1.2,0.2c-0.4,0.2-0.8,0-1.2,0s-0.8,0.2-1.2,0.2
		c-0.6,0-0.6-0.2-1.2-0.2c-0.6,0-0.6,0.2-1.2,0.2h-1.2c-0.4,0-0.4,0.2-1,0.2h-1.2c-0.4,0-0.8,0-1,0.2c-0.4,0.2-0.8,0.2-1,0.4
		c-0.2,0.2-0.2,0.6-0.4,1c0,0.4-0.2,0.6-0.2,1c0,0.6-0.2,0.6-0.2,1.2c0,0.6,0.2,0.6,0.2,1.2v1.2v1.4c0,0.6-0.2,0.6-0.2,1.2v1.2v1.2
		c0,0.6,0.2,0.6,0.2,1.2v1.2v1.2c0,0.6-0.2,0.6-0.2,1.2v1.2v1.4c0,0.6,0.2,0.6,0.2,1.2c0,0.4,0,0.8,0.2,1.2l0.6,1.2
		c0.2,0,0.6,0,1.2,0.2c0.4,0,0.8,0.2,1.4,0.2c0.4,0,0.8,0.2,1.2,0.2c0.6,0,1-0.2,1.4-0.2h1.2c0.2,0,0.6,0.2,1.2,0.2h1.2
		c0.4,0,0.8-0.2,1.2-0.2s0.8,0.2,1.2,0.2s0.8-0.2,1-0.2c0.4,0,0.8-0.2,1.2-0.2s0.8,0.2,1.2,0h1.2c0.4,0,0.8-0.2,1.2-0.2
		c0.4-0.2,0.8-0.2,1.2-0.2s0.8-0.2,1.2-0.4c0.4,0,0.8-0.2,1.2-0.2c0.4-0.2,0.8-0.2,1.2-0.4c0.4,0,0.6-0.4,1-0.6s0.8,0.2,1.2,0
		s0.6-0.6,1-0.8s0.8-0.2,1.2-0.2c0.4-0.2,0.8-0.4,1-0.6c0.4-0.2,0.6-0.6,1-0.8c0.4-0.2,0.6-0.4,1-0.6s0.6-0.4,1-0.6l0.8-0.8
		c0.4-0.4,0.8-0.4,1.2-0.6c0.2-0.4,0.6-0.6,0.8-1l0.8-0.8c0.2-0.4,0.6-0.6,0.8-1c0.2-0.2,0.4-0.6,0.6-1l0.8-0.8
		c0.2-0.4,0.4-0.8,0.6-1c0.2-0.4,0.4-0.8,0.6-1c0.2-0.4,0.6-0.8,0.8-1c0.2-0.4,0.4-0.8,0.4-1.2c0.2-0.2,0.4-0.6,0.6-1
		c0-0.4,0.4-0.8,0.6-1c0.2-0.4,0.2-0.8,0.4-1.2c0.2-0.4,0-0.8,0-1.2c0.2-0.4,0.4-0.8,0.4-1.2c0.2-0.4,0.2-0.8,0.4-1.2
		c0-0.4,0.2-0.6,0.2-1c0.2-0.4,0.2-0.8,0.4-1.2c0-0.4,0.2-0.8,0.2-1.2c0.2-0.4,0-0.8,0.2-1.2V430c0-0.4,0.2-0.7,0.2-1.1
		c0,0,0,0,0-0.1v-0.2v-0.3c0-0.2,0.1-0.4,0.2-0.7v-1.2v-0.5c0.1-0.2,0.2-0.3,0.2-0.6c0-0.2,0-0.3-0.1-0.4c0.1-0.3,0.3-0.5,0.3-0.8
		c0-0.3-0.2-0.5-0.3-0.8c0.1-0.1,0.1-0.2,0.1-0.4c0-0.6-0.2-0.6-0.2-1.2v-1.2v0c0,0,0,0,0-0.1c0-0.5,0.4-0.6,0.4-1.1V418
		c0-0.6-0.2-0.6-0.2-1.2c0-0.5,0.1-0.6,0.2-0.9c0,0,0,0,0-0.1c0.2-0.4,0.2-0.8,0.4-1.2c0.4-0.2,0.8-0.2,1.2-0.4
		c0.2-0.2,0.6-0.2,1-0.2c0.6,0,0.6-0.2,1.2-0.2s0.6,0.2,1.2,0.2c0.6,0,0.6-0.2,1-0.2h1.2h1.2h1.2c0.6,0,0.6-0.2,1.2-0.2
		c0.4,0,0.8,0.4,1.2,0.4s0.8-0.4,1.2-0.4s0.8,0.2,1.2,0.2c0.4-0.2,0.8,0,1.2,0s0.8-0.2,1.2-0.4c0.4,0,0.8-0.2,1.2-0.2h1.2
		c0.4-0.2,0.8-0.2,1.2-0.2c0.4-0.2,0.8,0,1.2-0.2c0.4,0,0.8-0.2,1.2-0.2c0.4-0.2,0.8-0.2,1.2-0.2c0.4-0.2,0.6-0.4,1-0.4
		c0.4-0.2,0.8-0.2,1.2-0.4c0.4,0,0.8-0.4,1-0.6c0.4-0.2,0.8-0.4,1.2-0.4c0.4-0.2,0.8-0.2,1.2-0.4s0.6-0.4,1-0.6s0.6-0.6,1-0.8
		s0.8-0.2,1.2-0.4c0.4-0.2,0.6-0.6,0.8-0.8c0.4-0.2,0.8-0.4,1-0.6c0.4-0.4,0.6-0.8,0.8-1c0.4-0.2,0.6-0.6,0.8-0.8
		c0.4-0.4,0.6-0.6,0.8-1c0.4-0.2,0.8-0.4,1-0.8c0.2-0.2,0.4-0.6,0.6-1c0.4-0.2,0.6-0.6,0.8-0.8c0.4-0.4,0.4-0.8,0.6-1.2
		c0.2-0.4,0.4-0.6,0.6-1c0.2-0.4,0.6-0.6,0.6-1c0.2-0.4,0-1,0.2-1.2l0.6-1.2c0.2-0.4,0.2-0.8,0.4-1.2c0.2-0.2,0.2-0.6,0.4-1
		c0-0.4,0.2-0.8,0.2-1.2c0.2-0.4,0.2-0.8,0.4-1.2c0-0.4,0.2-0.8,0.2-1.2c0.2-0.4,0.2-0.8,0.2-1.2c0.2-0.4,0.4-0.6,0.4-1.2
		c0.2-0.2,0-0.8,0-1.2c0.2-0.4,0.2-0.6,0.4-1.2v-1.2c0-0.4,0.2-0.8,0.2-1.2c0-0.4-0.2-0.8-0.2-1.2s0.2-0.8,0.2-1.2s0-0.8,0.2-1.2
		c0-0.4-0.2-0.8-0.2-1.2v-1.2c0-0.4-0.2-0.8-0.2-1.2v-1.2c0-0.2,0.2-0.6,0.2-1s0.2-0.8,0.2-1.2S1835.8,371.9,1835.8,371.6
		c0-0.5,0.4-0.9,0.4-1.3c0-0.4-0.2-0.8-0.2-1.2V368c0-0.4-0.2-0.8-0.2-1.2v11.8v-1.2c0-0.4,0.4-0.8,0.4-1.2s-0.2-0.8-0.2-1.2
		s-0.2-0.8-0.2-1.2c0-0.4,0.4-0.8,0.4-1.2S1835.8,371.8,1835.8,371.6z M1811.9,369.8c0,0.4-0.2,0.8-0.2,1.2v1.2v1.2
		c0,0.4,0.2,0.8,0.2,1.2v1.2c0,0.4-0.4,0.8-0.4,1.2c0,0.4,0.4,0.8,0.2,1.2c0,0.4-0.2,0.8-0.2,1.2c0,0.4,0,0.8-0.2,1.2
		c0,0.4,0.2,0.8,0.2,1.2s-0.2,0.6-0.4,1c0,0.4-0.2,0.8-0.2,1.2c-0.2,0.4-0.4,0.8-0.4,1c-0.2,0.4-0.2,0.8-0.2,1.2
		c-0.2,0.4-0.8,0.6-1,1c-0.2,0.2,0,0.8-0.2,1c-0.4,0.4-0.8,0.4-1,0.8c-0.4,0.2-0.6,0.6-0.8,0.8l-1.2,0.6c-0.2,0.2-0.6,0.2-1,0.2
		c-0.4,0.2-0.8,0.6-1,0.6c-0.4,0.2-0.8,0-1.2,0c-0.4,0.2-0.8,0.2-1.2,0.2h-1.2h-1.4c-0.6,0-0.6,0.2-1.2,0.2c-0.8,0-0.8-0.2-1.4-0.2
		h-1.2c-0.8,0-0.8,0.2-1.4,0.2c-0.4,0-0.8-0.2-1.2-0.2c-0.4-0.2-0.6-0.6-1-0.8c-0.1-0.1-0.3-0.3-0.5-0.6c0-0.1,0-0.2,0-0.4
		c0-0.6-0.2-0.6-0.2-1.2V387v-1.2c0-0.6,0.2-0.6,0.2-1.2v-1.2v-1.2c0-0.5-0.1-0.6-0.2-1v-0.2v-1.2c0-0.1,0-0.2,0-0.2v-1v-1.2
		c0-0.6,0.2-0.6,0.2-1.2c0-0.6-0.2-0.6-0.2-1.2v-1.2c0-0.6,0.2-0.6,0.2-1.2c0-0.6-0.2-0.6-0.2-1.1c0,0,0,0,0-0.1v-1.2
		c0-0.1,0-0.2,0-0.2v-1V368c0-0.6,0.2-0.6,0.2-1.2v11.8c0-0.6-0.2-0.6-0.2-1.2v-1.2V375c0-0.6,0.2-0.6,0.2-1.2
		c0-0.6-0.2-0.6-0.2-1.2s0.2-0.6,0.2-1.2c0-0.6-0.2-0.6-0.2-1.1c0-0.1,0-0.2,0-0.2c0-0.1,0-0.2,0-0.2V369v-1.2v-1.2
		c0-0.6,0.2-0.6,0.2-1.2c0-0.5-0.3-0.6-0.4-1.1v-0.3c0-0.1,0-0.1,0-0.2c0-0.2,0.1-0.4,0.1-0.7c0-0.1,0-0.2,0-0.4c0-0.1,0-0.2,0-0.2
		v-0.8v-1.2v1.8c0-0.1,0-0.1,0-0.2v-1.2c0,0,0,0,0,0c0-0.4,0.2-0.5,0.2-1V359c0,0,0,0,0,0c0.2-0.4,0.2-0.8,0.4-1
		c0.4-0.4,0.6-0.6,1-0.8s0.8-0.4,1.2-0.4c0.6,0,0.6,0.4,1.4,0.4c0.6,0,0.6-0.4,1.2-0.4c0.6,0,0.6,0.2,1.4,0.2h1.2h1.4
		c0.4,0,0.8-0.2,1.2-0.2c0.4,0.2,0.8,0.4,1.2,0.4c0.4,0.2,0.8,0,1,0.2c0.4,0,1,0,1.2,0.2c0.4,0.2,0.8,0.2,1.2,0.4s0.6,0.4,1,0.6
		c0.4,0.2,0.6,0.6,0.8,0.8c0.4,0.4,0.4,0.8,0.8,1c0.2,0.4,0.4,0.6,0.6,1c0.2,0.2,0.6,0.6,0.8,1c0.2,0.2,0.2,0.6,0.4,1
		c0,0.4,0.2-2.2,0.2-1.8c0.2,0.4,0.2,0.8,0.4,1.2v1c0.2,0.4,0,0.8,0,1.2s0.2,0.8,0.2,1.2s0.2,0.8,0.2,1.2c0,0.4-0.2,0.8-0.2,1.2
		s0.2,0.8,0.2,1.2v1.2v1.2v1.2c0,0.4-0.2,0.8-0.2,1.2s0.2,0.8,0.2,1.2s0.2,0.8,0.2,1.2c0,0.4-0.2,0.8-0.2,1.2v1.2
		c0,0.4-0.2-12.2-0.2-11.8v1.2C1811.5,369,1811.9,369.4,1811.9,369.8z"/>
	<path class="st0" d="M1766.7,408.8c0,0.1,0,0.2,0,0.3c0,0,0-0.1,0-0.1C1766.7,408.9,1766.7,408.8,1766.7,408.8z"/>
	<path class="st0" d="M1766.6,402.6c0-0.1,0,0.3,0,0.9c0-0.2,0-0.4,0.1-0.5C1766.7,402.9,1766.6,402.7,1766.6,402.6z"/>
	<path class="st0" d="M1766.8,418.1c0-0.3,0-0.4-0.1-0.5c0,0.3,0,0.6,0,0.9c0,0,0-0.1,0.1-0.1V418.1z"/>
	<path class="st0" d="M1766.8,420.4v-1c0,0,0-0.1-0.1-0.1c0,0.5,0,1,0,1.4c0,0,0-0.1,0.1-0.1V420.4z"/>
	<path class="st0" d="M1766.8,407.1c0-0.5,0.2-0.6,0.2-1.1c0-0.5-0.2-0.5-0.2-1.1c0,0,0-0.1,0-0.1c0,0,0-0.1,0-0.1
		c0-0.6-0.2-0.6-0.2-1.1c0,1,0,2.6,0,4.5c0.1-0.2,0.2-0.4,0.2-0.8V407.1z"/>
	<path class="st0" d="M1766.8,415.5v-0.4c0-0.1-0.1-0.1-0.1-0.2c0,0.5,0,1,0,1.5c0.1-0.1,0.1-0.2,0.2-0.4
		C1766.9,415.9,1766.8,415.8,1766.8,415.5z"/>
</g>
<text transform="matrix(1 0 0 1 1673.377 -11.1055)"><tspan x="0" y="0" class="st0" style="font-family:'SSNicksonSix'; font-size:198.7011px; letter-spacing:-5;">J</tspan><tspan x="67.6" y="0" class="st0" style="font-family:'SSNicksonSix'; font-size:198.7011px; letter-spacing:-1;">P</tspan></text>
</svg>
